Hart's War (2002) [BDRip720p][Nautilus-BT]
Join www.nautilus-bt.org

[img]http://img24.imageshack.us/img24/3070/sottoc.jpg[/img]

Link IMDb : http://www.imdb.com/title/tt0251114/

A law student becomes a lieutenant during World War II, is captured and asked to defend a black prisoner of war falsely accused of murder.


Italian title : Sotto corte marziale
Original title : Hart's War
Release date : 2002
Genre : drama
Country : USA
Sceneggiatura : Bill Ray, Terry George
Directed by : Gregory Hoblit
Music by : Rachel Portman


Languages : Italian - English
Subtitle : Italian - English
Subtitle forced : Italian
Chapters : yes


[img]http://img402.imageshack.us/img402/1000/sottocortemarzialequant.png[/img]

General
Complete name                    : Sotto corte marziale - Hart's War (2002) [BDRip720p Ita-Eng] by Pitt@Sk8.mkv
Format                           : Matroska
File size                        : 4.38 GiB
Duration                         : 2h 4mn
Overall bit rate                 : 5 019 Kbps
Encoded date                     : UTC 2011-01-14 13:44:25
Writing application              : mkvmerge v4.0.0 ('The Stars were mine') built on Jun  6 2010 16:18:42
Writing library                  : libebml v1.0.0 + libmatroska v1.0.0

Video
ID                               : 1
Format                           : AVC
Format/Info                      : Advanced Video Codec
Format profile                   : High@L4.1
Format settings, CABAC           : Yes
Format settings, ReFrames        : 3 frames
Muxing mode                      : Container profile=Unknown@4.1
Codec ID                         : V_MPEG4/ISO/AVC
Duration                         : 2h 4mn
Bit rate mode                    : Variable
Bit rate                         : 3 807 Kbps
Maximum bit rate                 : 42.0 Mbps
Width                            : 1 280 pixels
Height                           : 544 pixels
Display aspect ratio             : 16:9
Frame rate                       : 23.976 fps
Color space                      : YUV
Chroma subsampling               : 4:2:0
Bit depth                        : 8 bits
Scan type                        : Progressive
Bits/(Pixel*Frame)               : 0.228
Stream size                      : 3.24 GiB (74%)
Title                            : BDRip720p by Pitt@Sk8
Writing library                  : x264 core 104 r1713 c276662
Encoding settings                : cabac=1 / ref=3 / deblock=1:0:0 / analyse=0x3:0x133 / me=hex / subme=7 / psy=1 / psy_rd=1.00:0.00 / mixed_ref=1 / me_range=16 / chroma_me=1 / trellis=1 / 8x8dct=1 / cqm=0 / deadzone=21,11 / fast_pskip=1 / chroma_qp_offset=-2 / threads=6 / sliced_threads=0 / slices=4 / nr=0 / decimate=1 / interlaced=0 / constrained_intra=0 / bframes=3 / b_pyramid=1 / b_adapt=1 / b_bias=0 / direct=1 / weightb=1 / open_gop=2 / weightp=2 / keyint=240 / keyint_min=23 / scenecut=40 / intra_refresh=0 / rc_lookahead=40 / rc=2pass / mbtree=1 / bitrate=3807 / ratetol=1.0 / qcomp=0.60 / qpmin=10 / qpmax=51 / qpstep=4 / cplxblur=20.0 / qblur=0.5 / vbv_maxrate=42000 / vbv_bufsize=42000 / ip_ratio=1.40 / aq=1:1.00 / nal_hrd=vbr

Audio #1
ID                               : 2
Format                           : DTS
Format/Info                      : Digital Theater Systems
Codec ID                         : A_DTS
Duration                         : 2h 4mn
Bit rate mode                    : Constant
Bit rate                         : 755 Kbps
Channel(s)                       : 6 channels
Channel positions                : Front: L C R, Side: L R, LFE
Sampling rate                    : 48.0 KHz
Bit depth                        : 24 bits
Stream size                      : 674 MiB (15%)
Title                            : Italiano DTS 5.1 755 kbps - Pitt@Sk8
Language                         : Italian

Audio #2
ID                               : 3
Format                           : AC-3
Format/Info                      : Audio Coding 3
Mode extension                   : CM (complete main)
Codec ID                         : A_AC3
Duration                         : 2h 4mn
Bit rate mode                    : Constant
Bit rate                         : 448 Kbps
Channel(s)                       : 6 channels
Channel positions                : Front: L C R, Side: L R, LFE
Sampling rate                    : 48.0 KHz
Bit depth                        : 16 bits
Stream size                      : 400 MiB (9%)
Title                            : English AC3 5.1 448 kbps - Pitt@Sk8
Language                         : English

Text #1
ID                               : 4
Format                           : VobSub
Codec ID                         : S_VOBSUB
Codec ID/Info                    : The same subtitle format used on DVDs
Title                            : Cartelli - Italiano
Language                         : Italian

Text #2
ID                               : 5
Format                           : VobSub
Codec ID                         : S_VOBSUB
Codec ID/Info                    : The same subtitle format used on DVDs
Title                            : Sottotitoli - Italiano
Language                         : Italian

Text #3
ID                               : 6
Format                           : VobSub
Codec ID                         : S_VOBSUB
Codec ID/Info                    : The same subtitle format used on DVDs
Title                            : Subtitle English
Language                         : English

Menu
00:00:00.000                     : en:Hart's War -01- Pitt@Sk8
00:03:15.529                     : en:Hart's War -02- Pitt@Sk8
00:05:53.186                     : en:Hart's War -03- Pitt@Sk8
00:08:13.118                     : en:Hart's War -04- Pitt@Sk8
00:10:37.804                     : en:Hart's War -05- Pitt@Sk8
00:15:07.532                     : en:Hart's War -06- Pitt@Sk8
00:19:37.093                     : en:Hart's War -07- Pitt@Sk8
00:25:44.877                     : en:Hart's War -08- Pitt@Sk8
00:28:38.675                     : en:Hart's War -09- Pitt@Sk8
00:32:28.280                     : en:Hart's War -10- Pitt@Sk8
00:35:14.487                     : en:Hart's War -11- Pitt@Sk8
00:40:18.750                     : en:Hart's War -12- Pitt@Sk8
00:44:48.978                     : en:Hart's War -13- Pitt@Sk8
00:47:39.857                     : en:Hart's War -14- Pitt@Sk8
00:50:23.229                     : en:Hart's War -15- Pitt@Sk8
00:53:04.556                     : en:Hart's War -16- Pitt@Sk8
00:57:49.675                     : en:Hart's War -17- Pitt@Sk8
01:00:14.319                     : en:Hart's War -18- Pitt@Sk8
01:05:07.529                     : en:Hart's War -19- Pitt@Sk8
01:08:45.038                     : en:Hart's War -20- Pitt@Sk8
01:13:43.711                     : en:Hart's War -21- Pitt@Sk8
01:17:10.709                     : en:Hart's War -22- Pitt@Sk8
01:21:45.901                     : en:Hart's War -23- Pitt@Sk8
01:25:09.521                     : en:Hart's War -24- Pitt@Sk8
01:28:16.333                     : en:Hart's War -25- Pitt@Sk8
01:34:11.187                     : en:Hart's War -26- Pitt@Sk8
01:38:26.067                     : en:Hart's War -27- Pitt@Sk8
01:41:07.979                     : en:Hart's War -28- Pitt@Sk8
01:45:51.762                     : en:Hart's War -29- Pitt@Sk8
01:52:06.386                     : en:Hart's War -30- Pitt@Sk8
01:59:13.938                     : en:Hart's War -31- Pitt@Sk8
02:00:02.028                     : en:Hart's War -32- Pitt@Sk8


[img]http://img408.imageshack.us/img408/1443/swar2002bdrip720pitaeng.jpg[/img]

[img]http://img577.imageshack.us/img577/1443/swar2002bdrip720pitaeng.jpg[/img]

[img]http://img714.imageshack.us/img714/1443/swar2002bdrip720pitaeng.jpg[/img]

[img]http://img513.imageshack.us/img513/1443/swar2002bdrip720pitaeng.jpg[/img]

[img]http://img5.imageshack.us/img5/1443/swar2002bdrip720pitaeng.jpg[/img]

[img]http://img199.imageshack.us/img199/1443/swar2002bdrip720pitaeng.jpg[/img]

Join www.nautilus-bt.org
